<svg xmlns="http://www.w3.org/2000/svg" viewBox="0 0 384 384">
<path fill="#ffd000" d="M384,125.09v5.07c-1.55,3.42-3.76,6.06-7.46,7.58l-21.68,8.96c22.41,81.17-18.36,165.85-94.95,199.4c-77.15,33.79-167.53,5.83-212.13-66.51C23.49,240.19,16.74,192,29.06,146.78L8,137.93c-3.88-1.63-6.35-4-8-7.68v-5.24c1.73-3.98,4.34-6.4,8.69-7.72l37.84-11.42l5.41-8.7l3.3-38.09c0.4-4.65,3.26-8.18,7.09-9.35c4.4-1.35,8.9,0.02,11.61,3.77l7.63,10.56c63.34-54.65,157.55-54.73,220.87,0l7.27-10.16c2.83-3.95,7.2-5.67,11.98-4.17c3.77,1.19,6.67,4.7,7.07,9.34l3.28,38.14l5.64,8.74l37.64,11.3C379.65,118.56,382.36,121.09,384,125.09z M307.96,297.55c36.03-39.25,50.02-94.25,36.21-146.1l-8.74,3.39l0.92,45.74c0.1,4.78-2.74,8.61-6.61,10.03c-4.06,1.48-8.55,0.61-11.51-2.81l-30.16-34.76l-43.77,15.2c-4.55,1.58-9.19-0.67-11.57-4.02c-2.58-3.63-2.36-7.95,0.01-11.86l23.38-38.62l-27.85-36.71c-2.78-3.67-2.69-8.44-0.23-12.05c2.07-3.02,6.2-5.25,10.5-4.25l45.08,10.51l12.2-17.56c-59.24-52.23-148.99-51.96-207.55,0.16l12.3,17.49l44.94-10.49c4.4-1.03,8.55,1.05,10.77,4.49c2.08,3.23,2.52,7.93-0.16,11.47l-28.06,37l24.08,39.91c2.25,3.74,1.06,8.54-1.41,11.43c-2.53,2.95-6.85,4.58-11.02,3.13l-43.63-15.17L66.6,207.16c-3.25,3.76-7.64,5.33-12.38,3.47c-3.7-1.45-6.55-5.28-6.45-10.02l0.98-45.57l-8.69-3.71c-15.36,57.04,3.09,117.56,46.65,156.79C150.8,365.84,249.37,361.38,307.96,297.55z M99.21,162.01l40.59,13.91l-21.42-35.68c-2.9-4.03-2.96-9.09,0.12-12.97l25.62-33.93l-41.19,9.39c-4.5,1.03-8.73-0.15-11.52-3.97L66.66,63.27l-3.77,42.96c-0.41,4.33-3.16,7.74-7.26,9.05l-41.13,12.56l38.83,16.5c4.14,1.52,6.83,4.98,7.1,9.41l-0.71,43.56l28.61-32.79C90.88,161.61,95.23,160.65,99.21,162.01z M296.29,165.03l28.05,32.15l-0.68-43c-0.04-4.16,2.14-7.62,5.82-9.39l40.38-17.13l-41.79-12.61c-4.41-1.65-7.09-5.5-7.06-10.26l-3.61-41.57L292.6,98.78c-2.77,3.56-7,5.07-11.42,3.86l-41.23-9.41l25.9,34.3c2.55,3.52,2.65,7.94,0.43,11.7l-22.02,36.66l40.9-14.05C289.18,160.46,293.38,161.7,296.29,165.03z"/>
<path fill="#ffd000" d="M311.01,230.94c-7.33,35.35-29.47,64.98-60.91,82.28c-35.85,19.74-80.3,19.83-116.06,0.03c-31.52-17.46-53.62-46.98-61-82.07c-0.68-3.25,0.74-6.64,2.59-8.64c2.21-2.39,5.45-3.92,9.32-3.24c70.4,12.45,142.32,12.58,212.7,0.22c3.93-0.69,7.08-0.32,9.92,2.29C309.39,223.5,311.83,226.96,311.01,230.94z M296.26,241.39c1.14-3.62,2.04-6.68,2.24-10.22c-71.21,12.26-142.61,12.14-213.37-0.04c0.63,3.74,1.56,7.01,2.83,10.4C151.67,267.29,233.08,267.13,296.26,241.39z M248.52,300.55c17.72-11.1,31.85-25.51,41.14-44.13c-62.42,21.49-133.38,21.09-195.31,0.07c9.57,18.98,23.89,33.39,41.26,44.08C163.27,268.25,220.55,268.26,248.52,300.55z M237.26,306.25c-6.2-6.78-13.01-10.5-20.64-13.59c-16.02-5.79-33.21-5.81-49.24,0c-7.81,3.09-14.74,7.16-20.68,13.6C175.61,319.29,208.44,319.36,237.26,306.25z"/>
</svg>
